{
	"accessors": [
		{
			"bufferView": 0,
			"componentType": 5126,
			"count": 648,
			"max": [
				0.1307315230369568,
				0.39043062925338745,
				0.2286619395017624
			],
			"min": [
				-0.20190566778182983,
				-0.4083945155143738,
				-0.2286619395017624
			],
			"type": "VEC3"
		},
		{
			"bufferView": 1,
			"componentType": 5126,
			"count": 648,
			"type": "VEC3"
		},
		{
			"bufferView": 2,
			"componentType": 5126,
			"count": 648,
			"type": "VEC2"
		},
		{
			"bufferView": 3,
			"componentType": 5126,
			"count": 648,
			"type": "VEC2"
		},
		{
			"bufferView": 4,
			"componentType": 5121,
			"count": 648,
			"type": "VEC4"
		},
		{
			"bufferView": 5,
			"componentType": 5126,
			"count": 648,
			"type": "VEC4"
		},
		{
			"bufferView": 6,
			"byteOffset": 0,
			"componentType": 5123,
			"count": 48,
			"type": "SCALAR"
		},
		{
			"bufferView": 6,
			"byteOffset": 96,
			"componentType": 5123,
			"count": 1530,
			"type": "SCALAR"
		},
		{
			"bufferView": 6,
			"byteOffset": 96,
			"componentType": 5123,
			"count": 1530,
			"type": "SCALAR"
		},
		{
			"bufferView": 6,
			"byteOffset": 3156,
			"componentType": 5123,
			"count": 42,
			"type": "SCALAR"
		},
		{
			"bufferView": 6,
			"byteOffset": 3156,
			"componentType": 5123,
			"count": 42,
			"type": "SCALAR"
		}
	],
	"asset": {
		"generator": "wowconv",
		"version": "2.0"
	},
	"bufferViews": [
		{
			"buffer": 0,
			"byteLength": 7776,
			"byteOffset": 0,
			"target": 34962
		},
		{
			"buffer": 0,
			"byteLength": 7776,
			"byteOffset": 7776,
			"target": 34962
		},
		{
			"buffer": 0,
			"byteLength": 5184,
			"byteOffset": 15552,
			"target": 34962
		},
		{
			"buffer": 0,
			"byteLength": 5184,
			"byteOffset": 20736,
			"target": 34962
		},
		{
			"buffer": 0,
			"byteLength": 2592,
			"byteOffset": 25920,
			"target": 34962
		},
		{
			"buffer": 0,
			"byteLength": 10368,
			"byteOffset": 28512,
			"target": 34962
		},
		{
			"buffer": 0,
			"byteLength": 3240,
			"byteOffset": 38880,
			"target": 34963
		}
	],
	"buffers": [
		{
			"byteLength": 42120,
			"uri": "helm_plate_raiddeathknight_h_01_drf.bin"
		}
	],
	"images": [],
	"materials": [
		{
			"doubleSided": false,
			"extras": {
				"blendMode": 2,
				"flags": 16
			},
			"pbrMetallicRoughness": {
				"metallicFactor": 0,
				"roughnessFactor": 1
			}
		},
		{
			"doubleSided": false,
			"extras": {
				"blendMode": 0,
				"flags": 0
			},
			"pbrMetallicRoughness": {
				"metallicFactor": 0,
				"roughnessFactor": 1
			}
		},
		{
			"doubleSided": false,
			"extras": {
				"blendMode": 2,
				"flags": 16
			},
			"pbrMetallicRoughness": {
				"metallicFactor": 0,
				"roughnessFactor": 1
			}
		},
		{
			"doubleSided": false,
			"extras": {
				"blendMode": 0,
				"flags": 1
			},
			"pbrMetallicRoughness": {
				"metallicFactor": 0,
				"roughnessFactor": 1
			}
		},
		{
			"doubleSided": false,
			"extras": {
				"blendMode": 2,
				"flags": 17
			},
			"pbrMetallicRoughness": {
				"metallicFactor": 0,
				"roughnessFactor": 1
			}
		}
	],
	"meshes": [
		{
			"name": "Helm_Plate_RaidDeathKnight_H_01_DrF",
			"primitives": [
				{
					"attributes": {
						"JOINTS_0": 4,
						"NORMAL": 1,
						"POSITION": 0,
						"TEXCOORD_0": 2,
						"TEXCOORD_1": 3,
						"WEIGHTS_0": 5
					},
					"indices": 6,
					"material": 0
				},
				{
					"attributes": {
						"JOINTS_0": 4,
						"NORMAL": 1,
						"POSITION": 0,
						"TEXCOORD_0": 2,
						"TEXCOORD_1": 3,
						"WEIGHTS_0": 5
					},
					"indices": 7,
					"material": 1
				},
				{
					"attributes": {
						"JOINTS_0": 4,
						"NORMAL": 1,
						"POSITION": 0,
						"TEXCOORD_0": 2,
						"TEXCOORD_1": 3,
						"WEIGHTS_0": 5
					},
					"indices": 8,
					"material": 2
				},
				{
					"attributes": {
						"JOINTS_0": 4,
						"NORMAL": 1,
						"POSITION": 0,
						"TEXCOORD_0": 2,
						"TEXCOORD_1": 3,
						"WEIGHTS_0": 5
					},
					"indices": 9,
					"material": 3
				},
				{
					"attributes": {
						"JOINTS_0": 4,
						"NORMAL": 1,
						"POSITION": 0,
						"TEXCOORD_0": 2,
						"TEXCOORD_1": 3,
						"WEIGHTS_0": 5
					},
					"indices": 10,
					"material": 4
				}
			]
		}
	],
	"nodes": [
		{
			"mesh": 0,
			"name": "Helm_Plate_RaidDeathKnight_H_01_DrF"
		}
	],
	"scene": 0,
	"scenes": [
		{
			"nodes": [
				0
			]
		}
	],
	"textures": []
}