{
	"accessors": [
		{
			"bufferView": 0,
			"componentType": 5126,
			"count": 648,
			"max": [
				0.1755688339471817,
				0.19710244238376617,
				0.1747867614030838
			],
			"min": [
				-0.30815473198890686,
				-0.14317326247692108,
				-0.17482221126556396
			],
			"type": "VEC3"
		},
		{
			"bufferView": 1,
			"componentType": 5126,
			"count": 648,
			"type": "VEC3"
		},
		{
			"bufferView": 2,
			"componentType": 5126,
			"count": 648,
			"type": "VEC2"
		},
		{
			"bufferView": 3,
			"componentType": 5126,
			"count": 648,
			"type": "VEC2"
		},
		{
			"bufferView": 4,
			"componentType": 5121,
			"count": 648,
			"type": "VEC4"
		},
		{
			"bufferView": 5,
			"componentType": 5126,
			"count": 648,
			"type": "VEC4"
		},
		{
			"bufferView": 6,
			"byteOffset": 0,
			"componentType": 5123,
			"count": 60,
			"type": "SCALAR"
		},
		{
			"bufferView": 6,
			"byteOffset": 120,
			"componentType": 5123,
			"count": 1818,
			"type": "SCALAR"
		},
		{
			"bufferView": 6,
			"byteOffset": 3756,
			"componentType": 5123,
			"count": 60,
			"type": "SCALAR"
		}
	],
	"asset": {
		"generator": "wowconv",
		"version": "2.0"
	},
	"bufferViews": [
		{
			"buffer": 0,
			"byteLength": 7776,
			"byteOffset": 0,
			"target": 34962
		},
		{
			"buffer": 0,
			"byteLength": 7776,
			"byteOffset": 7776,
			"target": 34962
		},
		{
			"buffer": 0,
			"byteLength": 5184,
			"byteOffset": 15552,
			"target": 34962
		},
		{
			"buffer": 0,
			"byteLength": 5184,
			"byteOffset": 20736,
			"target": 34962
		},
		{
			"buffer": 0,
			"byteLength": 2592,
			"byteOffset": 25920,
			"target": 34962
		},
		{
			"buffer": 0,
			"byteLength": 10368,
			"byteOffset": 28512,
			"target": 34962
		},
		{
			"buffer": 0,
			"byteLength": 3876,
			"byteOffset": 38880,
			"target": 34963
		}
	],
	"buffers": [
		{
			"byteLength": 42756,
			"uri": "helm_plate_pvpdeathknight_b_04_trf.bin"
		}
	],
	"images": [],
	"materials": [
		{
			"doubleSided": false,
			"extras": {
				"blendMode": 0,
				"flags": 1
			},
			"pbrMetallicRoughness": {
				"metallicFactor": 0,
				"roughnessFactor": 1
			}
		},
		{
			"doubleSided": false,
			"extras": {
				"blendMode": 0,
				"flags": 0
			},
			"pbrMetallicRoughness": {
				"metallicFactor": 0,
				"roughnessFactor": 1
			}
		},
		{
			"doubleSided": false,
			"extras": {
				"blendMode": 2,
				"flags": 16
			},
			"pbrMetallicRoughness": {
				"metallicFactor": 0,
				"roughnessFactor": 1
			}
		}
	],
	"meshes": [
		{
			"name": "Helm_Plate_PVPDeathKnight_B_04_TrF",
			"primitives": [
				{
					"attributes": {
						"JOINTS_0": 4,
						"NORMAL": 1,
						"POSITION": 0,
						"TEXCOORD_0": 2,
						"TEXCOORD_1": 3,
						"WEIGHTS_0": 5
					},
					"indices": 6,
					"material": 0
				},
				{
					"attributes": {
						"JOINTS_0": 4,
						"NORMAL": 1,
						"POSITION": 0,
						"TEXCOORD_0": 2,
						"TEXCOORD_1": 3,
						"WEIGHTS_0": 5
					},
					"indices": 7,
					"material": 1
				},
				{
					"attributes": {
						"JOINTS_0": 4,
						"NORMAL": 1,
						"POSITION": 0,
						"TEXCOORD_0": 2,
						"TEXCOORD_1": 3,
						"WEIGHTS_0": 5
					},
					"indices": 8,
					"material": 2
				}
			]
		}
	],
	"nodes": [
		{
			"mesh": 0,
			"name": "Helm_Plate_PVPDeathKnight_B_04_TrF"
		}
	],
	"scene": 0,
	"scenes": [
		{
			"nodes": [
				0
			]
		}
	],
	"textures": []
}