{
	"accessors": [
		{
			"bufferView": 0,
			"componentType": 5126,
			"count": 779,
			"max": [
				0.32625070214271545,
				0.2809397876262665,
				0.2082565277814865
			],
			"min": [
				-0.38529232144355774,
				-0.5736098885536194,
				-0.1968529373407364
			],
			"type": "VEC3"
		},
		{
			"bufferView": 1,
			"componentType": 5126,
			"count": 779,
			"type": "VEC3"
		},
		{
			"bufferView": 2,
			"componentType": 5126,
			"count": 779,
			"type": "VEC2"
		},
		{
			"bufferView": 3,
			"componentType": 5126,
			"count": 779,
			"type": "VEC2"
		},
		{
			"bufferView": 4,
			"componentType": 5121,
			"count": 779,
			"type": "VEC4"
		},
		{
			"bufferView": 5,
			"componentType": 5126,
			"count": 779,
			"type": "VEC4"
		},
		{
			"bufferView": 6,
			"byteOffset": 0,
			"componentType": 5123,
			"count": 2274,
			"type": "SCALAR"
		},
		{
			"bufferView": 6,
			"byteOffset": 0,
			"componentType": 5123,
			"count": 2274,
			"type": "SCALAR"
		},
		{
			"bufferView": 6,
			"byteOffset": 4548,
			"componentType": 5123,
			"count": 12,
			"type": "SCALAR"
		},
		{
			"bufferView": 6,
			"byteOffset": 4572,
			"componentType": 5123,
			"count": 42,
			"type": "SCALAR"
		}
	],
	"asset": {
		"generator": "wowconv",
		"version": "2.0"
	},
	"bufferViews": [
		{
			"buffer": 0,
			"byteLength": 9348,
			"byteOffset": 0,
			"target": 34962
		},
		{
			"buffer": 0,
			"byteLength": 9348,
			"byteOffset": 9348,
			"target": 34962
		},
		{
			"buffer": 0,
			"byteLength": 6232,
			"byteOffset": 18696,
			"target": 34962
		},
		{
			"buffer": 0,
			"byteLength": 6232,
			"byteOffset": 24928,
			"target": 34962
		},
		{
			"buffer": 0,
			"byteLength": 3116,
			"byteOffset": 31160,
			"target": 34962
		},
		{
			"buffer": 0,
			"byteLength": 12464,
			"byteOffset": 34276,
			"target": 34962
		},
		{
			"buffer": 0,
			"byteLength": 4656,
			"byteOffset": 46740,
			"target": 34963
		}
	],
	"buffers": [
		{
			"byteLength": 51396,
			"uri": "helm_plate_pvppaladin_b_04_orm.bin"
		}
	],
	"images": [],
	"materials": [
		{
			"doubleSided": false,
			"extras": {
				"blendMode": 0,
				"flags": 0
			},
			"pbrMetallicRoughness": {
				"metallicFactor": 0,
				"roughnessFactor": 1
			}
		},
		{
			"doubleSided": false,
			"extras": {
				"blendMode": 2,
				"flags": 16
			},
			"pbrMetallicRoughness": {
				"metallicFactor": 0,
				"roughnessFactor": 1
			}
		},
		{
			"doubleSided": false,
			"extras": {
				"blendMode": 0,
				"flags": 1
			},
			"pbrMetallicRoughness": {
				"metallicFactor": 0,
				"roughnessFactor": 1
			}
		},
		{
			"doubleSided": false,
			"extras": {
				"blendMode": 2,
				"flags": 16
			},
			"pbrMetallicRoughness": {
				"metallicFactor": 0,
				"roughnessFactor": 1
			}
		}
	],
	"meshes": [
		{
			"name": "Helm_Plate_PVPPaladin_B_04_OrM",
			"primitives": [
				{
					"attributes": {
						"JOINTS_0": 4,
						"NORMAL": 1,
						"POSITION": 0,
						"TEXCOORD_0": 2,
						"TEXCOORD_1": 3,
						"WEIGHTS_0": 5
					},
					"indices": 6,
					"material": 0
				},
				{
					"attributes": {
						"JOINTS_0": 4,
						"NORMAL": 1,
						"POSITION": 0,
						"TEXCOORD_0": 2,
						"TEXCOORD_1": 3,
						"WEIGHTS_0": 5
					},
					"indices": 7,
					"material": 1
				},
				{
					"attributes": {
						"JOINTS_0": 4,
						"NORMAL": 1,
						"POSITION": 0,
						"TEXCOORD_0": 2,
						"TEXCOORD_1": 3,
						"WEIGHTS_0": 5
					},
					"indices": 8,
					"material": 2
				},
				{
					"attributes": {
						"JOINTS_0": 4,
						"NORMAL": 1,
						"POSITION": 0,
						"TEXCOORD_0": 2,
						"TEXCOORD_1": 3,
						"WEIGHTS_0": 5
					},
					"indices": 9,
					"material": 3
				}
			]
		}
	],
	"nodes": [
		{
			"mesh": 0,
			"name": "Helm_Plate_PVPPaladin_B_04_OrM"
		}
	],
	"scene": 0,
	"scenes": [
		{
			"nodes": [
				0
			]
		}
	],
	"textures": []
}