{
	"accessors": [
		{
			"bufferView": 0,
			"componentType": 5126,
			"count": 630,
			"max": [
				0.2650989890098572,
				0.12670116126537323,
				0.2550922930240631
			],
			"min": [
				-0.40882608294487,
				-0.4266597032546997,
				-0.2437114417552948
			],
			"type": "VEC3"
		},
		{
			"bufferView": 1,
			"componentType": 5126,
			"count": 630,
			"type": "VEC3"
		},
		{
			"bufferView": 2,
			"componentType": 5126,
			"count": 630,
			"type": "VEC2"
		},
		{
			"bufferView": 3,
			"componentType": 5126,
			"count": 630,
			"type": "VEC2"
		},
		{
			"bufferView": 4,
			"componentType": 5121,
			"count": 630,
			"type": "VEC4"
		},
		{
			"bufferView": 5,
			"componentType": 5126,
			"count": 630,
			"type": "VEC4"
		},
		{
			"bufferView": 6,
			"byteOffset": 0,
			"componentType": 5123,
			"count": 60,
			"type": "SCALAR"
		},
		{
			"bufferView": 6,
			"byteOffset": 120,
			"componentType": 5123,
			"count": 1926,
			"type": "SCALAR"
		},
		{
			"bufferView": 6,
			"byteOffset": 3972,
			"componentType": 5123,
			"count": 60,
			"type": "SCALAR"
		}
	],
	"asset": {
		"generator": "wowconv",
		"version": "2.0"
	},
	"bufferViews": [
		{
			"buffer": 0,
			"byteLength": 7560,
			"byteOffset": 0,
			"target": 34962
		},
		{
			"buffer": 0,
			"byteLength": 7560,
			"byteOffset": 7560,
			"target": 34962
		},
		{
			"buffer": 0,
			"byteLength": 5040,
			"byteOffset": 15120,
			"target": 34962
		},
		{
			"buffer": 0,
			"byteLength": 5040,
			"byteOffset": 20160,
			"target": 34962
		},
		{
			"buffer": 0,
			"byteLength": 2520,
			"byteOffset": 25200,
			"target": 34962
		},
		{
			"buffer": 0,
			"byteLength": 10080,
			"byteOffset": 27720,
			"target": 34962
		},
		{
			"buffer": 0,
			"byteLength": 4092,
			"byteOffset": 37800,
			"target": 34963
		}
	],
	"buffers": [
		{
			"byteLength": 41892,
			"uri": "helm_plate_pvpdeathknight_b_04_orm.bin"
		}
	],
	"images": [],
	"materials": [
		{
			"doubleSided": false,
			"extras": {
				"blendMode": 0,
				"flags": 1
			},
			"pbrMetallicRoughness": {
				"metallicFactor": 0,
				"roughnessFactor": 1
			}
		},
		{
			"doubleSided": false,
			"extras": {
				"blendMode": 0,
				"flags": 0
			},
			"pbrMetallicRoughness": {
				"metallicFactor": 0,
				"roughnessFactor": 1
			}
		},
		{
			"doubleSided": false,
			"extras": {
				"blendMode": 2,
				"flags": 16
			},
			"pbrMetallicRoughness": {
				"metallicFactor": 0,
				"roughnessFactor": 1
			}
		}
	],
	"meshes": [
		{
			"name": "Helm_Plate_PVPDeathKnight_B_04_OrM",
			"primitives": [
				{
					"attributes": {
						"JOINTS_0": 4,
						"NORMAL": 1,
						"POSITION": 0,
						"TEXCOORD_0": 2,
						"TEXCOORD_1": 3,
						"WEIGHTS_0": 5
					},
					"indices": 6,
					"material": 0
				},
				{
					"attributes": {
						"JOINTS_0": 4,
						"NORMAL": 1,
						"POSITION": 0,
						"TEXCOORD_0": 2,
						"TEXCOORD_1": 3,
						"WEIGHTS_0": 5
					},
					"indices": 7,
					"material": 1
				},
				{
					"attributes": {
						"JOINTS_0": 4,
						"NORMAL": 1,
						"POSITION": 0,
						"TEXCOORD_0": 2,
						"TEXCOORD_1": 3,
						"WEIGHTS_0": 5
					},
					"indices": 8,
					"material": 2
				}
			]
		}
	],
	"nodes": [
		{
			"mesh": 0,
			"name": "Helm_Plate_PVPDeathKnight_B_04_OrM"
		}
	],
	"scene": 0,
	"scenes": [
		{
			"nodes": [
				0
			]
		}
	],
	"textures": []
}