{
	"accessors": [
		{
			"bufferView": 0,
			"componentType": 5126,
			"count": 2564,
			"max": [
				0.4579332768917084,
				4.490525245666504,
				1.0629870891571045
			],
			"min": [
				-0.8088881373405457,
				-0.01609548181295395,
				-1.0909637212753296
			],
			"type": "VEC3"
		},
		{
			"bufferView": 1,
			"componentType": 5126,
			"count": 2564,
			"type": "VEC3"
		},
		{
			"bufferView": 2,
			"componentType": 5126,
			"count": 2564,
			"type": "VEC2"
		},
		{
			"bufferView": 3,
			"componentType": 5126,
			"count": 2564,
			"type": "VEC2"
		},
		{
			"bufferView": 4,
			"componentType": 5121,
			"count": 2564,
			"type": "VEC4"
		},
		{
			"bufferView": 5,
			"componentType": 5126,
			"count": 2564,
			"type": "VEC4"
		},
		{
			"bufferView": 6,
			"byteOffset": 0,
			"componentType": 5123,
			"count": 7404,
			"type": "SCALAR"
		},
		{
			"bufferView": 6,
			"byteOffset": 14808,
			"componentType": 5123,
			"count": 864,
			"type": "SCALAR"
		},
		{
			"bufferView": 6,
			"byteOffset": 18084,
			"componentType": 5123,
			"count": 1824,
			"type": "SCALAR"
		},
		{
			"bufferView": 6,
			"byteOffset": 16536,
			"componentType": 5123,
			"count": 24,
			"type": "SCALAR"
		},
		{
			"bufferView": 6,
			"byteOffset": 16584,
			"componentType": 5123,
			"count": 750,
			"type": "SCALAR"
		}
	],
	"asset": {
		"generator": "wowconv",
		"version": "2.0"
	},
	"bufferViews": [
		{
			"buffer": 0,
			"byteLength": 30768,
			"byteOffset": 0,
			"target": 34962
		},
		{
			"buffer": 0,
			"byteLength": 30768,
			"byteOffset": 30768,
			"target": 34962
		},
		{
			"buffer": 0,
			"byteLength": 20512,
			"byteOffset": 61536,
			"target": 34962
		},
		{
			"buffer": 0,
			"byteLength": 20512,
			"byteOffset": 82048,
			"target": 34962
		},
		{
			"buffer": 0,
			"byteLength": 10256,
			"byteOffset": 102560,
			"target": 34962
		},
		{
			"buffer": 0,
			"byteLength": 41024,
			"byteOffset": 112816,
			"target": 34962
		},
		{
			"buffer": 0,
			"byteLength": 21732,
			"byteOffset": 153840,
			"target": 34963
		}
	],
	"buffers": [
		{
			"byteLength": 175572,
			"uri": "frostvrykulfemalewarrior.bin"
		}
	],
	"images": [
		{
			"uri": "frostvrykulfemalewarrior.png"
		},
		{
			"uri": "frostvrykulfemalehair.png"
		},
		{
			"uri": "frostvrykulfemalehelmet.png"
		},
		{
			"uri": "frostvrykulfemalecape.png"
		}
	],
	"materials": [
		{
			"doubleSided": false,
			"extras": {
				"blendMode": 0,
				"flags": 0
			},
			"pbrMetallicRoughness": {
				"baseColorTexture": {
					"index": 0
				},
				"metallicFactor": 0,
				"roughnessFactor": 1
			}
		},
		{
			"doubleSided": false,
			"extras": {
				"blendMode": 0,
				"flags": 0
			},
			"pbrMetallicRoughness": {
				"baseColorTexture": {
					"index": 1
				},
				"metallicFactor": 0,
				"roughnessFactor": 1
			}
		},
		{
			"doubleSided": false,
			"extras": {
				"blendMode": 0,
				"flags": 0
			},
			"pbrMetallicRoughness": {
				"baseColorTexture": {
					"index": 2
				},
				"metallicFactor": 0,
				"roughnessFactor": 1
			}
		},
		{
			"doubleSided": false,
			"extras": {
				"blendMode": 0,
				"flags": 1
			},
			"pbrMetallicRoughness": {
				"baseColorTexture": {
					"index": 0
				},
				"metallicFactor": 0,
				"roughnessFactor": 1
			}
		},
		{
			"doubleSided": false,
			"extras": {
				"blendMode": 0,
				"flags": 0
			},
			"pbrMetallicRoughness": {
				"baseColorTexture": {
					"index": 3
				},
				"metallicFactor": 0,
				"roughnessFactor": 1
			}
		}
	],
	"meshes": [
		{
			"name": "FrostVrykulFemaleWarrior",
			"primitives": [
				{
					"attributes": {
						"JOINTS_0": 4,
						"NORMAL": 1,
						"POSITION": 0,
						"TEXCOORD_0": 2,
						"TEXCOORD_1": 3,
						"WEIGHTS_0": 5
					},
					"indices": 6,
					"material": 0
				},
				{
					"attributes": {
						"JOINTS_0": 4,
						"NORMAL": 1,
						"POSITION": 0,
						"TEXCOORD_0": 2,
						"TEXCOORD_1": 3,
						"WEIGHTS_0": 5
					},
					"indices": 7,
					"material": 1
				},
				{
					"attributes": {
						"JOINTS_0": 4,
						"NORMAL": 1,
						"POSITION": 0,
						"TEXCOORD_0": 2,
						"TEXCOORD_1": 3,
						"WEIGHTS_0": 5
					},
					"indices": 8,
					"material": 2
				},
				{
					"attributes": {
						"JOINTS_0": 4,
						"NORMAL": 1,
						"POSITION": 0,
						"TEXCOORD_0": 2,
						"TEXCOORD_1": 3,
						"WEIGHTS_0": 5
					},
					"indices": 9,
					"material": 3
				},
				{
					"attributes": {
						"JOINTS_0": 4,
						"NORMAL": 1,
						"POSITION": 0,
						"TEXCOORD_0": 2,
						"TEXCOORD_1": 3,
						"WEIGHTS_0": 5
					},
					"indices": 10,
					"material": 4
				}
			]
		}
	],
	"nodes": [
		{
			"mesh": 0,
			"name": "FrostVrykulFemaleWarrior"
		}
	],
	"scene": 0,
	"scenes": [
		{
			"nodes": [
				0
			]
		}
	],
	"textures": [
		{
			"source": 0
		},
		{
			"source": 1
		},
		{
			"source": 2
		},
		{
			"source": 3
		}
	]
}