{
	"accessors": [
		{
			"bufferView": 0,
			"componentType": 5126,
			"count": 644,
			"max": [
				0.26617589592933655,
				0.24252110719680786,
				0.17418299615383148
			],
			"min": [
				-0.2617317736148834,
				-0.3535606563091278,
				-0.386711984872818
			],
			"type": "VEC3"
		},
		{
			"bufferView": 1,
			"componentType": 5126,
			"count": 644,
			"type": "VEC3"
		},
		{
			"bufferView": 2,
			"componentType": 5126,
			"count": 644,
			"type": "VEC2"
		},
		{
			"bufferView": 3,
			"componentType": 5126,
			"count": 644,
			"type": "VEC2"
		},
		{
			"bufferView": 4,
			"componentType": 5121,
			"count": 644,
			"type": "VEC4"
		},
		{
			"bufferView": 5,
			"componentType": 5126,
			"count": 644,
			"type": "VEC4"
		},
		{
			"bufferView": 6,
			"byteOffset": 0,
			"componentType": 5123,
			"count": 1557,
			"type": "SCALAR"
		},
		{
			"bufferView": 6,
			"byteOffset": 0,
			"componentType": 5123,
			"count": 1557,
			"type": "SCALAR"
		},
		{
			"bufferView": 6,
			"byteOffset": 3114,
			"componentType": 5123,
			"count": 147,
			"type": "SCALAR"
		},
		{
			"bufferView": 6,
			"byteOffset": 3114,
			"componentType": 5123,
			"count": 147,
			"type": "SCALAR"
		}
	],
	"asset": {
		"generator": "wowconv",
		"version": "2.0"
	},
	"bufferViews": [
		{
			"buffer": 0,
			"byteLength": 7728,
			"byteOffset": 0,
			"target": 34962
		},
		{
			"buffer": 0,
			"byteLength": 7728,
			"byteOffset": 7728,
			"target": 34962
		},
		{
			"buffer": 0,
			"byteLength": 5152,
			"byteOffset": 15456,
			"target": 34962
		},
		{
			"buffer": 0,
			"byteLength": 5152,
			"byteOffset": 20608,
			"target": 34962
		},
		{
			"buffer": 0,
			"byteLength": 2576,
			"byteOffset": 25760,
			"target": 34962
		},
		{
			"buffer": 0,
			"byteLength": 10304,
			"byteOffset": 28336,
			"target": 34962
		},
		{
			"buffer": 0,
			"byteLength": 3408,
			"byteOffset": 38640,
			"target": 34963
		}
	],
	"buffers": [
		{
			"byteLength": 42048,
			"uri": "lshoulder_cloth_pvpmage_b_04.bin"
		}
	],
	"images": [],
	"materials": [
		{
			"doubleSided": false,
			"extras": {
				"blendMode": 0,
				"flags": 0
			},
			"pbrMetallicRoughness": {
				"metallicFactor": 0,
				"roughnessFactor": 1
			}
		},
		{
			"doubleSided": false,
			"extras": {
				"blendMode": 2,
				"flags": 16
			},
			"pbrMetallicRoughness": {
				"metallicFactor": 0,
				"roughnessFactor": 1
			}
		},
		{
			"doubleSided": false,
			"extras": {
				"blendMode": 0,
				"flags": 1
			},
			"pbrMetallicRoughness": {
				"metallicFactor": 0,
				"roughnessFactor": 1
			}
		},
		{
			"doubleSided": false,
			"extras": {
				"blendMode": 2,
				"flags": 16
			},
			"pbrMetallicRoughness": {
				"metallicFactor": 0,
				"roughnessFactor": 1
			}
		}
	],
	"meshes": [
		{
			"name": "LShoulder_Cloth_PVPMage_B_04",
			"primitives": [
				{
					"attributes": {
						"JOINTS_0": 4,
						"NORMAL": 1,
						"POSITION": 0,
						"TEXCOORD_0": 2,
						"TEXCOORD_1": 3,
						"WEIGHTS_0": 5
					},
					"indices": 6,
					"material": 0
				},
				{
					"attributes": {
						"JOINTS_0": 4,
						"NORMAL": 1,
						"POSITION": 0,
						"TEXCOORD_0": 2,
						"TEXCOORD_1": 3,
						"WEIGHTS_0": 5
					},
					"indices": 7,
					"material": 1
				},
				{
					"attributes": {
						"JOINTS_0": 4,
						"NORMAL": 1,
						"POSITION": 0,
						"TEXCOORD_0": 2,
						"TEXCOORD_1": 3,
						"WEIGHTS_0": 5
					},
					"indices": 8,
					"material": 2
				},
				{
					"attributes": {
						"JOINTS_0": 4,
						"NORMAL": 1,
						"POSITION": 0,
						"TEXCOORD_0": 2,
						"TEXCOORD_1": 3,
						"WEIGHTS_0": 5
					},
					"indices": 9,
					"material": 3
				}
			]
		}
	],
	"nodes": [
		{
			"mesh": 0,
			"name": "LShoulder_Cloth_PVPMage_B_04"
		}
	],
	"scene": 0,
	"scenes": [
		{
			"nodes": [
				0
			]
		}
	],
	"textures": []
}